<svg xmlns="http://www.w3.org/2000/svg" viewBox="0 0 24 24" width="24" height="24" fill="none" stroke="#1F3A2E" stroke-width="1.5" stroke-linecap="round" stroke-linejoin="round">
  <!-- Chat bubble — replaces 💬. Reply/conversation. -->
  <path d="M 3 5 C 3 3.9 3.9 3 5 3 L 19 3 C 20.1 3 21 3.9 21 5 L 21 15 C 21 16.1 20.1 17 19 17 L 8 17 L 3 21 Z" fill="#1F3A2E" fill-opacity="0.06"/>
  <path d="M 3 5 C 3 3.9 3.9 3 5 3 L 19 3 C 20.1 3 21 3.9 21 5 L 21 15 C 21 16.1 20.1 17 19 17 L 8 17 L 3 21 Z"/>
  <!-- Typing dots -->
  <circle cx="8" cy="10.5" r="1" fill="#1F3A2E" opacity="0.5"/>
  <circle cx="12" cy="10.5" r="1" fill="#1F3A2E" opacity="0.5"/>
  <circle cx="16" cy="10.5" r="1" fill="#1F3A2E" opacity="0.5"/>
</svg>