<svg xmlns="http://www.w3.org/2000/svg" viewBox="0 0 24 24" width="24" height="24" fill="none" stroke="#7e9b73" stroke-width="1.5" stroke-linecap="round" stroke-linejoin="round">
  <!-- Leaf — replaces 🌿 / 🌱. Brand identity icon. -->
  <path d="M 6 21 C 6 21 8 14 12 10 C 16 6 22 3 22 3 C 22 3 20 10 16 14 C 12 18 6 21 6 21 Z" fill="#7e9b73" fill-opacity="0.15"/>
  <path d="M 6 21 C 6 21 8 14 12 10 C 16 6 22 3 22 3 C 22 3 20 10 16 14 C 12 18 6 21 6 21 Z"/>
  <path d="M 14 7 C 12 10 9 14 6 21"/>
  <!-- Stem -->
  <path d="M 2 22 L 6 21"/>
</svg>