<svg xmlns="http://www.w3.org/2000/svg" viewBox="0 0 24 24" width="24" height="24" fill="none" stroke="#4A7C5E" stroke-width="1.5" stroke-linecap="round" stroke-linejoin="round">
  <!-- Water drop — greywater, water systems. -->
  <path d="M 12 2 C 12 2 5 11 5 15 C 5 18.87 8.13 22 12 22 C 15.87 22 19 18.87 19 15 C 19 11 12 2 12 2 Z" fill="#4A7C5E" fill-opacity="0.1"/>
  <path d="M 12 2 C 12 2 5 11 5 15 C 5 18.87 8.13 22 12 22 C 15.87 22 19 18.87 19 15 C 19 11 12 2 12 2 Z"/>
  <!-- Reflection highlight -->
  <path d="M 9 15 C 9 13 10.5 11 12 10" opacity="0.4"/>
</svg>