<svg xmlns="http://www.w3.org/2000/svg" viewBox="0 0 24 24" width="24" height="24" fill="none" stroke="#7e9b73" stroke-width="1.5" stroke-linecap="round" stroke-linejoin="round">
  <!-- Seedling — growth, food systems, permaculture. -->
  <!-- Stem -->
  <path d="M 12 22 L 12 12"/>
  <!-- Left leaf -->
  <path d="M 12 16 C 8 16 5 13 5 10 C 8 10 12 12 12 16 Z" fill="#7e9b73" fill-opacity="0.15"/>
  <path d="M 12 16 C 8 16 5 13 5 10 C 8 10 12 12 12 16 Z"/>
  <!-- Right leaf -->
  <path d="M 12 12 C 16 12 19 9 19 6 C 16 6 12 8 12 12 Z" fill="#7e9b73" fill-opacity="0.15"/>
  <path d="M 12 12 C 16 12 19 9 19 6 C 16 6 12 8 12 12 Z"/>
  <!-- Ground line -->
  <line x1="6" y1="22" x2="18" y2="22" opacity="0.4"/>
</svg>