<svg xmlns="http://www.w3.org/2000/svg" viewBox="0 0 36 48" width="36" height="48">
  <!-- Custom map pin — supplier/partner marker. Clay colored. -->
  <ellipse cx="18" cy="46" rx="8" ry="2" fill="#000" opacity="0.15"/>
  <path d="M 18 2 C 10.27 2 4 8.27 4 16 C 4 25 18 44 18 44 C 18 44 32 25 32 16 C 32 8.27 25.73 2 18 2 Z" fill="#8A5B3F"/>
  <path d="M 18 2 C 10.27 2 4 8.27 4 16 C 4 25 18 44 18 44 C 18 44 32 25 32 16 C 32 8.27 25.73 2 18 2 Z" fill="none" stroke="#C2A56C" stroke-width="1"/>
  <circle cx="18" cy="15" r="7" fill="#A06B4A"/>
  <!-- Box/package icon inside -->
  <g transform="translate(12, 9)" stroke="#F2EFE6" stroke-width="1" fill="none" stroke-linecap="round" stroke-linejoin="round">
    <rect x="1" y="3" width="10" height="8" rx="0.5"/>
    <line x1="1" y1="6" x2="11" y2="6"/>
    <line x1="6" y1="3" x2="6" y2="6"/>
  </g>
</svg>