<svg xmlns="http://www.w3.org/2000/svg" viewBox="0 0 36 48" width="36" height="48">
  <!-- Custom map pin — member/person marker. -->
  <ellipse cx="18" cy="46" rx="8" ry="2" fill="#000" opacity="0.15"/>
  <path d="M 18 2 C 10.27 2 4 8.27 4 16 C 4 25 18 44 18 44 C 18 44 32 25 32 16 C 32 8.27 25.73 2 18 2 Z" fill="#7e9b73"/>
  <path d="M 18 2 C 10.27 2 4 8.27 4 16 C 4 25 18 44 18 44 C 18 44 32 25 32 16 C 32 8.27 25.73 2 18 2 Z" fill="none" stroke="#4A7C5E" stroke-width="1"/>
  <circle cx="18" cy="15" r="7" fill="#5A8A63"/>
  <!-- Person silhouette inside -->
  <circle cx="18" cy="13" r="2.5" fill="#F2EFE6" opacity="0.85"/>
  <path d="M 13.5 20 C 13.5 17 15.5 15.5 18 15.5 C 20.5 15.5 22.5 17 22.5 20" fill="#F2EFE6" opacity="0.6"/>
</svg>