<svg xmlns="http://www.w3.org/2000/svg" viewBox="0 0 200 200" width="200" height="200">
  <!-- Topographic contour pattern — earth/terrain feel. Tile with repeat. -->
  <defs>
    <pattern id="topo" x="0" y="0" width="200" height="200" patternUnits="userSpaceOnUse">
      <path d="M 20 100 Q 60 60 100 80 Q 140 100 180 70" fill="none" stroke="#7e9b73" stroke-width="0.6" opacity="0.08"/>
      <path d="M 10 130 Q 50 100 100 110 Q 150 120 190 95" fill="none" stroke="#7e9b73" stroke-width="0.6" opacity="0.07"/>
      <path d="M 0 160 Q 40 140 90 145 Q 140 150 200 130" fill="none" stroke="#7e9b73" stroke-width="0.6" opacity="0.06"/>
      <path d="M 30 60 Q 70 30 110 50 Q 150 70 190 40" fill="none" stroke="#C2A56C" stroke-width="0.5" opacity="0.05"/>
      <path d="M 0 30 Q 50 10 100 25 Q 150 40 200 15" fill="none" stroke="#C2A56C" stroke-width="0.5" opacity="0.04"/>
      <path d="M 15 185 Q 55 170 105 178 Q 155 186 195 168" fill="none" stroke="#7e9b73" stroke-width="0.5" opacity="0.05"/>
    </pattern>
  </defs>
  <rect width="200" height="200" fill="url(#topo)"/>
</svg>